<svg width="89" height="25" viewBox="0 0 89 25" fill="none" xmlns="http://www.w3.org/2000/svg">
<path fill-rule="evenodd" clip-rule="evenodd" d="M27.0356 12.7856C27.0356 11.8993 26.9494 11.0471 26.7894 10.2289H14.0386V15.0639H21.3248C21.0109 16.6263 20.0571 17.9501 18.6232 18.8364V21.9726H22.9986C25.5587 19.7966 27.0356 16.5922 27.0356 12.7856Z" fill="#4285F4"/>
<path fill-rule="evenodd" clip-rule="evenodd" d="M14.0382 25C17.6936 25 20.7583 23.8807 22.9983 21.9718L18.6229 18.8356C17.4106 19.5855 15.8598 20.0287 14.0382 20.0287C10.5121 20.0287 7.52743 17.8299 6.4628 14.8755H1.9397V18.114C4.1674 22.199 8.7459 25 14.0382 25Z" fill="#34A853"/>
<path fill-rule="evenodd" clip-rule="evenodd" d="M6.46312 14.8726C6.19234 14.1226 6.0385 13.3215 6.0385 12.4977C6.0385 11.6739 6.19234 10.8728 6.46312 10.1229V6.88438H1.94001C1.02308 8.5718 0.5 10.4808 0.5 12.4977C0.5 14.5147 1.02308 16.4237 1.94001 18.1111L6.46312 14.8726Z" fill="#FBBC05"/>
<path fill-rule="evenodd" clip-rule="evenodd" d="M14.0382 4.97133C16.0259 4.97133 17.8106 5.60198 19.2137 6.84055L23.0968 3.25551C20.7521 1.23857 17.6875 0 14.0382 0C8.7459 0 4.1674 2.80099 1.9397 6.886L6.4628 10.1245C7.52743 7.17008 10.5121 4.97133 14.0382 4.97133Z" fill="#EA4335"/>
<path d="M45.2566 12.0823V15.8831C45.1153 16.0699 44.8943 16.275 44.5935 16.4983C44.2973 16.7171 43.9031 16.9062 43.4109 17.0657C42.9187 17.2252 42.3057 17.305 41.572 17.305C40.9477 17.305 40.3757 17.2001 39.8562 16.9905C39.3367 16.7763 38.8878 16.4641 38.5095 16.054C38.1358 15.6438 37.8464 15.1448 37.6414 14.5569C37.4363 13.9645 37.3337 13.29 37.3337 12.5335V11.843C37.3337 11.0911 37.4272 10.4212 37.614 9.83328C37.8054 9.24083 38.0789 8.73953 38.4343 8.32938C38.7898 7.91922 39.2182 7.60932 39.7195 7.39969C40.2253 7.1855 40.7973 7.0784 41.4353 7.0784C42.2511 7.0784 42.9255 7.21512 43.4587 7.48856C43.9965 7.75744 44.4112 8.13113 44.7029 8.60965C44.9945 9.08817 45.1791 9.63504 45.2566 10.2503H43.575C43.5203 9.90392 43.4132 9.59402 43.2537 9.32059C43.0987 9.04715 42.8754 8.83296 42.5837 8.67801C42.2966 8.5185 41.9229 8.43875 41.4626 8.43875C41.0662 8.43875 40.7175 8.51395 40.4167 8.66434C40.116 8.81473 39.8653 9.03576 39.6648 9.32742C39.4688 9.61909 39.3207 9.97456 39.2205 10.3938C39.1202 10.8131 39.0701 11.2916 39.0701 11.8294V12.5335C39.0701 13.0804 39.127 13.5657 39.241 13.9895C39.3595 14.4134 39.5281 14.7711 39.7468 15.0628C39.9701 15.3544 40.2413 15.5755 40.5603 15.7259C40.8793 15.8717 41.2393 15.9446 41.6404 15.9446C42.0323 15.9446 42.3536 15.9127 42.6042 15.8489C42.8549 15.7805 43.0531 15.7008 43.199 15.6096C43.3494 15.5139 43.4656 15.4228 43.5476 15.3362V13.3606H41.4763V12.0823H45.2566ZM46.8185 13.552V13.3948C46.8185 12.8616 46.8959 12.3671 47.0509 11.9114C47.2058 11.4511 47.4291 11.0524 47.7208 10.7151C48.017 10.3733 48.3771 10.109 48.8009 9.92215C49.2293 9.73074 49.7123 9.63504 50.2501 9.63504C50.7924 9.63504 51.2755 9.73074 51.6993 9.92215C52.1277 10.109 52.49 10.3733 52.7862 10.7151C53.0825 11.0524 53.3081 11.4511 53.463 11.9114C53.6179 12.3671 53.6954 12.8616 53.6954 13.3948V13.552C53.6954 14.0852 53.6179 14.5797 53.463 15.0354C53.3081 15.4912 53.0825 15.8899 52.7862 16.2317C52.49 16.569 52.13 16.8333 51.7062 17.0247C51.2823 17.2115 50.8015 17.305 50.2638 17.305C49.7215 17.305 49.2361 17.2115 48.8077 17.0247C48.3839 16.8333 48.0239 16.569 47.7276 16.2317C47.4314 15.8899 47.2058 15.4912 47.0509 15.0354C46.8959 14.5797 46.8185 14.0852 46.8185 13.552ZM48.4659 13.3948V13.552C48.4659 13.8847 48.5001 14.1992 48.5685 14.4954C48.6368 14.7916 48.7439 15.0514 48.8898 15.2747C49.0356 15.498 49.2224 15.6735 49.4503 15.8011C49.6782 15.9287 49.9493 15.9925 50.2638 15.9925C50.5691 15.9925 50.8334 15.9287 51.0567 15.8011C51.2846 15.6735 51.4715 15.498 51.6173 15.2747C51.7631 15.0514 51.8702 14.7916 51.9386 14.4954C52.0115 14.1992 52.048 13.8847 52.048 13.552V13.3948C52.048 13.0667 52.0115 12.7568 51.9386 12.4651C51.8702 12.1689 51.7608 11.9069 51.6105 11.679C51.4646 11.4511 51.2778 11.2734 51.0499 11.1458C50.8266 11.0136 50.56 10.9475 50.2501 10.9475C49.9402 10.9475 49.6713 11.0136 49.4435 11.1458C49.2202 11.2734 49.0356 11.4511 48.8898 11.679C48.7439 11.9069 48.6368 12.1689 48.5685 12.4651C48.5001 12.7568 48.4659 13.0667 48.4659 13.3948ZM54.9018 13.552V13.3948C54.9018 12.8616 54.9793 12.3671 55.1342 11.9114C55.2892 11.4511 55.5125 11.0524 55.8042 10.7151C56.1004 10.3733 56.4604 10.109 56.8842 9.92215C57.3126 9.73074 57.7957 9.63504 58.3335 9.63504C58.8758 9.63504 59.3589 9.73074 59.7827 9.92215C60.2111 10.109 60.5734 10.3733 60.8696 10.7151C61.1658 11.0524 61.3914 11.4511 61.5464 11.9114C61.7013 12.3671 61.7788 12.8616 61.7788 13.3948V13.552C61.7788 14.0852 61.7013 14.5797 61.5464 15.0354C61.3914 15.4912 61.1658 15.8899 60.8696 16.2317C60.5734 16.569 60.2134 16.8333 59.7895 17.0247C59.3657 17.2115 58.8849 17.305 58.3471 17.305C57.8048 17.305 57.3195 17.2115 56.8911 17.0247C56.4673 16.8333 56.1072 16.569 55.811 16.2317C55.5148 15.8899 55.2892 15.4912 55.1342 15.0354C54.9793 14.5797 54.9018 14.0852 54.9018 13.552ZM56.5493 13.3948V13.552C56.5493 13.8847 56.5835 14.1992 56.6518 14.4954C56.7202 14.7916 56.8273 15.0514 56.9731 15.2747C57.1189 15.498 57.3058 15.6735 57.5337 15.8011C57.7615 15.9287 58.0327 15.9925 58.3471 15.9925C58.6525 15.9925 58.9168 15.9287 59.1401 15.8011C59.368 15.6735 59.5548 15.498 59.7007 15.2747C59.8465 15.0514 59.9536 14.7916 60.0219 14.4954C60.0949 14.1992 60.1313 13.8847 60.1313 13.552V13.3948C60.1313 13.0667 60.0949 12.7568 60.0219 12.4651C59.9536 12.1689 59.8442 11.9069 59.6938 11.679C59.548 11.4511 59.3611 11.2734 59.1333 11.1458C58.91 11.0136 58.6434 10.9475 58.3335 10.9475C58.0236 10.9475 57.7547 11.0136 57.5268 11.1458C57.3035 11.2734 57.1189 11.4511 56.9731 11.679C56.8273 11.9069 56.7202 12.1689 56.6518 12.4651C56.5835 12.7568 56.5493 13.0667 56.5493 13.3948ZM68.0369 9.77176H69.534V16.9632C69.534 17.6285 69.3927 18.1936 69.1102 18.6585C68.8276 19.1233 68.4334 19.4765 67.9276 19.718C67.4217 19.9641 66.8361 20.0872 66.1707 20.0872C65.8882 20.0872 65.5737 20.0462 65.2274 19.9641C64.8856 19.8821 64.5529 19.7499 64.2293 19.5677C63.9103 19.3899 63.6437 19.1552 63.4295 18.8636L64.202 17.8929C64.4663 18.2073 64.758 18.4374 65.077 18.5833C65.396 18.7291 65.731 18.802 66.0819 18.802C66.4601 18.802 66.7814 18.7314 67.0457 18.5901C67.3146 18.4534 67.522 18.2506 67.6678 17.9817C67.8136 17.7128 67.8866 17.3847 67.8866 16.9973V11.4466L68.0369 9.77176ZM63.0125 13.552V13.4085C63.0125 12.8479 63.0809 12.3375 63.2176 11.8772C63.3543 11.4124 63.5503 11.0136 63.8055 10.6809C64.0607 10.3437 64.3706 10.0862 64.7352 9.90848C65.0998 9.72619 65.5122 9.63504 65.9725 9.63504C66.451 9.63504 66.8589 9.72163 67.1961 9.89481C67.5379 10.068 67.8228 10.3164 68.0506 10.6399C68.2785 10.9589 68.4562 11.3417 68.5838 11.7884C68.716 12.2304 68.814 12.7226 68.8778 13.2649V13.7229C68.8185 14.2516 68.7183 14.7346 68.577 15.1721C68.4357 15.6096 68.2489 15.9879 68.0164 16.3069C67.784 16.6259 67.4969 16.872 67.1551 17.0452C66.8179 17.2184 66.4191 17.305 65.9588 17.305C65.5076 17.305 65.0998 17.2115 64.7352 17.0247C64.3752 16.8378 64.0653 16.5758 63.8055 16.2386C63.5503 15.9013 63.3543 15.5048 63.2176 15.0491C63.0809 14.5888 63.0125 14.0898 63.0125 13.552ZM64.66 13.4085V13.552C64.66 13.8893 64.6919 14.2037 64.7557 14.4954C64.8241 14.7871 64.9266 15.0445 65.0633 15.2679C65.2046 15.4866 65.3823 15.6598 65.5965 15.7874C65.8153 15.9104 66.0728 15.972 66.369 15.972C66.7563 15.972 67.0731 15.8899 67.3192 15.7259C67.5698 15.5618 67.7612 15.3408 67.8934 15.0628C68.0301 14.7802 68.1258 14.4658 68.1805 14.1194V12.8821C68.1532 12.6132 68.0962 12.3626 68.0096 12.1302C67.9276 11.8977 67.8159 11.6949 67.6746 11.5218C67.5334 11.344 67.3556 11.2073 67.1414 11.1116C66.9272 11.0113 66.6743 10.9612 66.3826 10.9612C66.0864 10.9612 65.8289 11.025 65.6102 11.1526C65.3914 11.2802 65.2114 11.4557 65.0701 11.679C64.9334 11.9023 64.8309 12.1621 64.7625 12.4583C64.6942 12.7545 64.66 13.0712 64.66 13.4085ZM73.1467 6.66824V17.1682H71.4924V6.66824H73.1467ZM78.3521 17.305C77.8052 17.305 77.3108 17.2161 76.8687 17.0384C76.4312 16.8561 76.0575 16.6031 75.7476 16.2796C75.4423 15.956 75.2076 15.5755 75.0435 15.138C74.8794 14.7005 74.7974 14.2288 74.7974 13.7229V13.4495C74.7974 12.8707 74.8817 12.3466 75.0503 11.8772C75.219 11.4078 75.4537 11.0068 75.7544 10.6741C76.0552 10.3369 76.4107 10.0794 76.8209 9.90164C77.231 9.72391 77.6753 9.63504 78.1539 9.63504C78.6825 9.63504 79.1451 9.72391 79.5416 9.90164C79.938 10.0794 80.2662 10.33 80.5259 10.6536C80.7903 10.9726 80.9862 11.3531 81.1138 11.7952C81.246 12.2373 81.3121 12.7249 81.3121 13.2581V13.9622H75.5972V12.7796H79.6851V12.6497C79.676 12.3535 79.6167 12.0755 79.5074 11.8157C79.4026 11.5559 79.2408 11.3463 79.022 11.1868C78.8033 11.0273 78.5116 10.9475 78.147 10.9475C77.8736 10.9475 77.6298 11.0068 77.4156 11.1253C77.2059 11.2392 77.0305 11.4055 76.8892 11.6243C76.7479 11.843 76.6386 12.1074 76.5611 12.4173C76.4882 12.7226 76.4517 13.0667 76.4517 13.4495V13.7229C76.4517 14.0465 76.495 14.3473 76.5816 14.6253C76.6727 14.8987 76.8049 15.138 76.9781 15.343C77.1513 15.5481 77.3609 15.7099 77.607 15.8284C77.8531 15.9423 78.1334 15.9993 78.4478 15.9993C78.8443 15.9993 79.1975 15.9195 79.5074 15.76C79.8173 15.6005 80.0861 15.3749 80.314 15.0833L81.1822 15.9241C81.0227 16.1565 80.8153 16.3798 80.5601 16.594C80.3049 16.8037 79.9927 16.9746 79.6236 17.1067C79.259 17.2389 78.8352 17.305 78.3521 17.305Z" fill="#515151"/>
</svg>
