<svg width="158" height="226" viewBox="0 0 158 226" fill="none" xmlns="http://www.w3.org/2000/svg">
<g clip-path="url(#clip0_709_446)">
<path d="M83.8548 7.64915H74.1453V24.9848H83.8548V7.64915Z" fill="#014E90"/>
<path d="M115.155 23.4099L109.471 33.2466L116.281 37.1683L121.965 27.3315L115.155 23.4099Z" fill="#014E90"/>
<path d="M44.3159 22.5188L37.5112 26.4374L43.1958 36.2742L50.0005 32.3555L44.3159 22.5188Z" fill="#014E90"/>
<path d="M138 82.1033C138 114.629 111.583 141 79 141C46.4175 141 20 114.629 20 82.1033C20 49.5778 46.4175 23.2006 79 23.2006C111.583 23.2006 138 49.5718 138 82.0973V82.1033Z" fill="#FFDC00"/>
<path d="M138 82.1033C138 49.5718 111.583 23.2066 79 23.2066V141C111.583 141 138 114.629 138 82.1033Z" fill="#FFE600"/>
<path d="M128.254 82.1033C128.254 109.258 106.203 131.271 79.0001 131.271C51.7976 131.271 29.7458 109.252 29.7458 82.1033C29.7458 54.9546 51.7976 32.9354 79.0001 32.9354C106.203 32.9354 128.254 54.9485 128.254 82.1033Z" fill="#F5F5F5"/>
<path d="M128.254 82.1033C128.254 54.9485 106.202 32.9354 79 32.9354V131.271C106.202 131.271 128.254 109.258 128.254 82.1033Z" fill="white"/>
<path d="M79 94.213C72.3096 94.213 66.8691 88.776 66.8691 82.1033C66.8691 75.4307 72.3096 69.9937 79 69.9937C85.6904 69.9937 91.1309 75.4246 91.1309 82.1033C91.1309 88.782 85.6904 94.213 79 94.213ZM79 72.031C73.4388 72.031 68.9101 76.5458 68.9101 82.1033C68.9101 87.6609 73.4327 92.1756 79 92.1756C84.5673 92.1756 89.09 87.6548 89.09 82.1033C89.09 76.5518 84.5613 72.031 79 72.031Z" fill="#C8C8C8"/>
<path d="M81.0591 83.6283L77.4421 80.0238L111.552 49.5779L81.0591 83.6283Z" fill="#014E90"/>
<path d="M93.5582 0H64.4417V12.4954H93.5582V0Z" fill="#FFE600"/>
<path d="M48.2652 23.5743L36.4423 30.3917L29.2024 17.8661L41.0253 11.0548L48.2652 23.5743Z" fill="#FFE600"/>
<path d="M118.443 11.9483L111.203 24.4662L123.031 31.2835L130.271 18.7656L118.443 11.9483Z" fill="#FFE600"/>
<path d="M67.5938 98.5107L62.5337 93.4595L75.8783 80.1443L80.9323 85.1895L67.5938 98.5107Z" fill="#014E90"/>
<path d="M82.2607 84.8339C80.6002 86.4915 77.901 86.4915 76.2405 84.8339C74.58 83.1763 74.58 80.4819 76.2405 78.8182C77.901 77.1606 80.6002 77.1606 82.2607 78.8182C83.9212 80.4819 83.9212 83.1702 82.2607 84.8339Z" fill="#FFE600"/>
<path d="M81.0469 35.9492H76.959V43.1704H81.0469V35.9492Z" fill="#C8C8C8"/>
<path d="M81.0469 121.024H76.959V128.251H81.0469V121.024Z" fill="#C8C8C8"/>
<path d="M125.235 80.0599H117.995V84.1407H125.235V80.0599Z" fill="#C8C8C8"/>
<path d="M40.0109 80.0599H32.771V84.1407H40.0109V80.0599Z" fill="#C8C8C8"/>
<path d="M39.4761 58.1448L38.4553 59.909L44.7246 63.5237L45.7454 61.7595L39.4761 58.1448Z" fill="#C8C8C8"/>
<path d="M113.283 100.671L112.263 102.436L118.532 106.05L119.553 104.286L113.283 100.671Z" fill="#C8C8C8"/>
<path d="M101.237 41.6261L97.6182 47.8856L99.3858 48.904L103.005 42.6444L101.237 41.6261Z" fill="#C8C8C8"/>
<path d="M58.6225 115.314L54.9946 121.561L56.7603 122.583L60.3882 116.336L58.6225 115.314Z" fill="#C8C8C8"/>
<path d="M56.7729 41.6227L55.0054 42.6414L58.6253 48.9003L60.3928 47.8817L56.7729 41.6227Z" fill="#C8C8C8"/>
<path d="M99.3921 115.3L97.6191 116.321L101.238 122.581L103.011 121.56L99.3921 115.3Z" fill="#C8C8C8"/>
<path d="M118.533 58.1337L112.263 61.7463L113.283 63.5108L119.554 59.8983L118.533 58.1337Z" fill="#C8C8C8"/>
<path d="M44.7207 100.676L38.4526 104.293L39.474 106.057L45.7421 102.44L44.7207 100.676Z" fill="#C8C8C8"/>
</g>
<path d="M14.6821 211H3.82211L1.66211 200.68L6.40211 199.48L6.70211 207.76L10.5421 208.06V174.04L9.46211 171.16V168.4H15.2221L14.6821 211ZM25.529 211C23.889 211 22.749 210.74 22.109 210.22C21.469 209.7 21.149 208.84 21.149 207.64V169.84C22.029 169.36 23.169 169 24.569 168.76C26.009 168.52 27.909 168.4 30.269 168.4C31.349 168.4 32.229 168.68 32.909 169.24C33.589 169.76 33.929 170.44 33.929 171.28L33.509 211H25.529ZM29.249 207.58L29.789 207.04L30.149 172.78C30.149 172.58 29.969 172.46 29.609 172.42L25.889 172.24L25.349 172.6L24.989 207.22L29.249 207.58ZM51.3004 189.16C52.1004 189.36 52.9004 189.9 53.7004 190.78C54.5404 191.66 54.9604 192.76 54.9604 194.08L53.7604 209.2C53.7604 209.92 53.0804 210.4 51.7204 210.64C50.4004 210.88 49.1804 211 48.0604 211H39.9004V168.4H47.8804C49.2804 168.4 50.6004 168.74 51.8404 169.42C53.1204 170.1 53.7604 171 53.7604 172.12V184.18L51.3004 189.16ZM43.6804 186.7C43.6804 187.02 43.9204 187.18 44.4004 187.18H48.7204C48.8404 187.18 48.9804 187.1 49.1404 186.94C49.1804 186.9 49.2204 186.8 49.2604 186.64L49.8004 172.3C49.8004 172.14 49.5204 172.06 48.9604 172.06L43.6804 172.3V186.7ZM45.0604 207.64C48.3404 206.44 49.9804 205.36 49.9804 204.4C49.9804 204.16 49.9404 204.04 49.8604 204.04V191.74C49.9804 191.66 50.0404 191.6 50.0404 191.56C50.0404 191.44 49.9004 191.38 49.6204 191.38L45.0604 190.78C44.9404 190.78 44.8004 190.82 44.6404 190.9C44.5204 190.98 44.4404 191.06 44.4004 191.14V207.46L45.0604 207.64ZM83.0723 171.82H78.7523V209.8H73.7123V171.4L69.5723 170.68L70.1723 168.4H83.0723V171.82ZM92.0357 211H87.5957V174.04L86.5157 171.16V168.4H92.5757L92.0357 211ZM98.2598 211V168.4H102.58L106.96 194.44H107.44L111.52 168.4H115L116.38 211H112.42V178.9H112L107.86 201.58L105.88 202L101.62 175.66H101.38V211H98.2598ZM135.013 211H122.173V168.4H135.013V172.12L127.513 171.76V185.38L135.013 186.76V189.64L126.493 189.28V206.5L135.013 206.02V211ZM145.158 211H141.678V170.86L140.358 170.14V168.4H149.718C151.238 168.4 152.498 168.7 153.498 169.3C154.538 169.86 155.078 170.54 155.118 171.34L154.518 187.96C154.518 188.56 154.238 189.3 153.678 190.18C153.158 191.02 152.178 191.64 150.738 192.04L154.278 198.64L155.538 211L151.158 211.18L150.198 199.42L146.898 192.34H145.158V211ZM145.998 188.02C145.998 188.14 146.058 188.26 146.178 188.38C146.338 188.46 146.518 188.5 146.718 188.5H149.898C150.138 188.5 150.258 188.38 150.258 188.14L150.618 172.96C150.618 172.4 150.358 171.94 149.838 171.58C149.358 171.18 148.318 170.98 146.718 170.98C146.238 171.14 145.998 171.38 145.998 171.7V188.02Z" fill="#F5F5F5"/>
<defs>
<clipPath id="clip0_709_446">
<rect width="118" height="141" fill="white" transform="translate(20)"/>
</clipPath>
</defs>
</svg>
